<svg class="typst-doc" viewBox="0 0 595.2755905511812 841.8897637795276" width="595.2755905511812pt" height="841.8897637795276pt" xmlns="http://www.w3.org/2000/svg" xmlns:xlink="http://www.w3.org/1999/xlink" xmlns:h5="http://www.w3.org/1999/xhtml">
    <path class="typst-shape" fill="#ffffff" fill-rule="nonzero" d="M 0 0v 841.8898 h 595.2756 v -841.8898 Z "/>
    <g>
        <g class="typst-group">
            <g>
                <path class="typst-shape" fill="#ffdc00" fill-rule="nonzero" transform="matrix(1 0 0 1 212.5984251968504 335.90551181102364)" d="M 0 0m 0 85.03937 c 0 -46.923363 38.116005 -85.03937 85.03937 -85.03937 c 46.92337 0 85.03937 38.116005 85.03937 85.03937 c 0 46.92337 -38.115997 85.03937 -85.03937 85.03937 c -46.923363 0 -85.03937 -38.115997 -85.03937 -85.03937 "/>
                <g class="typst-group" transform="matrix(1 0 0 1 207.5984251968504 330.90551181102364)">
                    <g>
                        <path class="typst-shape" fill="url(#pBC6316B5D00027DE182D44C600657720)" fill-rule="nonzero" stroke="#ff4136" stroke-width="1" stroke-linecap="butt" stroke-linejoin="miter" stroke-miterlimit="4" d="M 0 0v 180.07874 h 180.07874 v -180.07874 Z "/>
                    </g>
                </g>
                <g class="typst-group" transform="matrix(1 0 0 1 70.86614173228347 70.86614173228347)">
                    <g>
                        <path class="typst-shape" fill="url(#pB4F42D4438A08AEA1C89E1E27FA8E796)" fill-rule="nonzero" stroke="#2ecc40" stroke-width="1" stroke-linecap="butt" stroke-linejoin="miter" stroke-miterlimit="4" d="M 0 0v 260.03937 h 218.26772 v -260.03937 Z "/>
                    </g>
                </g>
                <g class="typst-group" transform="matrix(1 0 0 1 70.86614173228347 330.90551181102364)">
                    <g>
                        <path class="typst-shape" fill="url(#pB4F42D4438A08AEA1C89E1E27FA8E796)" fill-rule="nonzero" stroke="#2ecc40" stroke-width="1" stroke-linecap="butt" stroke-linejoin="miter" stroke-miterlimit="4" d="M 0 0v 180.07874 h 136.73228 v -180.07874 Z "/>
                    </g>
                </g>
                <g class="typst-group" transform="matrix(1 0 0 1 70.86614173228347 510.98425196850394)">
                    <g>
                        <path class="typst-shape" fill="url(#pB4F42D4438A08AEA1C89E1E27FA8E796)" fill-rule="nonzero" stroke="#2ecc40" stroke-width="1" stroke-linecap="butt" stroke-linejoin="miter" stroke-miterlimit="4" d="M 0 0v 260.03937 h 218.26772 v -260.03937 Z "/>
                    </g>
                </g>
                <g class="typst-group" transform="matrix(1 0 0 1 306.1417322834646 70.86614173228347)">
                    <g>
                        <path class="typst-shape" fill="url(#pB4F42D4438A08AEA1C89E1E27FA8E796)" fill-rule="nonzero" stroke="#2ecc40" stroke-width="1" stroke-linecap="butt" stroke-linejoin="miter" stroke-miterlimit="4" d="M 0 0v 243.0315 h 218.26772 v -243.0315 Z "/>
                    </g>
                </g>
                <g class="typst-group" transform="matrix(1 0 0 1 306.1417322834646 313.8976377952756)">
                    <g>
                        <path class="typst-shape" fill="url(#pB4F42D4438A08AEA1C89E1E27FA8E796)" fill-rule="nonzero" stroke="#2ecc40" stroke-width="1" stroke-linecap="butt" stroke-linejoin="miter" stroke-miterlimit="4" d="M 0 0v 17.007874 h 218.26772 v -17.007874 Z "/>
                    </g>
                </g>
                <g class="typst-group" transform="matrix(1 0 0 1 387.6771653543307 330.90551181102364)">
                    <g>
                        <path class="typst-shape" fill="url(#pB4F42D4438A08AEA1C89E1E27FA8E796)" fill-rule="nonzero" stroke="#2ecc40" stroke-width="1" stroke-linecap="butt" stroke-linejoin="miter" stroke-miterlimit="4" d="M 0 0v 17.007874 h 136.73228 v -17.007874 Z "/>
                    </g>
                </g>
                <g class="typst-group" transform="matrix(1 0 0 1 387.6771653543307 347.9133858267717)">
                    <g>
                        <path class="typst-shape" fill="url(#pB4F42D4438A08AEA1C89E1E27FA8E796)" fill-rule="nonzero" stroke="#2ecc40" stroke-width="1" stroke-linecap="butt" stroke-linejoin="miter" stroke-miterlimit="4" d="M 0 0v 146.06299 h 136.73228 v -146.06299 Z "/>
                    </g>
                </g>
                <g class="typst-group" transform="matrix(1 0 0 1 387.6771653543307 493.9763779527559)">
                    <g>
                        <path class="typst-shape" fill="url(#pB4F42D4438A08AEA1C89E1E27FA8E796)" fill-rule="nonzero" stroke="#2ecc40" stroke-width="1" stroke-linecap="butt" stroke-linejoin="miter" stroke-miterlimit="4" d="M 0 0v 17.007874 h 136.73228 v -17.007874 Z "/>
                    </g>
                </g>
                <g class="typst-group" transform="matrix(1 0 0 1 306.1417322834646 510.98425196850394)">
                    <g>
                        <path class="typst-shape" fill="url(#pB4F42D4438A08AEA1C89E1E27FA8E796)" fill-rule="nonzero" stroke="#2ecc40" stroke-width="1" stroke-linecap="butt" stroke-linejoin="miter" stroke-miterlimit="4" d="M 0 0v 17.007874 h 218.26772 v -17.007874 Z "/>
                    </g>
                </g>
                <g class="typst-group" transform="matrix(1 0 0 1 306.1417322834646 527.992125984252)">
                    <g>
                        <path class="typst-shape" fill="url(#pB4F42D4438A08AEA1C89E1E27FA8E796)" fill-rule="nonzero" stroke="#2ecc40" stroke-width="1" stroke-linecap="butt" stroke-linejoin="miter" stroke-miterlimit="4" d="M 0 0v 243.0315 h 218.26772 v -243.0315 Z "/>
                    </g>
                </g>
            </g>
        </g>
    </g>
    <defs id="tilings">
        <pattern id="t3B229D2E6DCE1BB272FA6CA44900086D" width="30" height="30" patternUnits="userSpaceOnUse" viewBox="0 0 30.000 30.000">
            <g>
                <g class="typst-group">
                    <g>
                        <path class="typst-shape" fill="#ff41360d" fill-rule="nonzero" d="M 0 0v 30 h 30 v -30 Z "/>
                    </g>
                </g>
                <path class="typst-shape" fill="none" stroke="#ff4136" stroke-width="0.1" stroke-linecap="butt" stroke-linejoin="miter" stroke-miterlimit="4" transform="matrix(1 0 0 1 7.5 7.5)" d="M 0 0l 15 15 "/>
                <path class="typst-shape" fill="none" stroke="#ff4136" stroke-width="0.1" stroke-linecap="butt" stroke-linejoin="miter" stroke-miterlimit="4" transform="matrix(1 0 0 1 7.5 22.5)" d="M 0 0l 15 -15 "/>
            </g>
        </pattern>
        <pattern id="tB61E08826609D5FC1E27C2CC55981A8F" width="30" height="30" patternUnits="userSpaceOnUse" viewBox="0 0 30.000 30.000">
            <g>
                <g class="typst-group">
                    <g>
                        <path class="typst-shape" fill="#2ecc400d" fill-rule="nonzero" d="M 0 0v 30 h 30 v -30 Z "/>
                    </g>
                </g>
                <path class="typst-shape" fill="none" stroke="#2ecc40" stroke-width="0.1" stroke-linecap="butt" stroke-linejoin="miter" stroke-miterlimit="4" transform="matrix(1 0 0 1 7.5 15)" d="M 0 0h 15 "/>
                <path class="typst-shape" fill="none" stroke="#2ecc40" stroke-width="0.1" stroke-linecap="butt" stroke-linejoin="miter" stroke-miterlimit="4" transform="matrix(1 0 0 1 15 7.5)" d="M 0 0v 15 "/>
            </g>
        </pattern>
    </defs>
    <defs id="tilings-refs">
        <pattern patternTransform="matrix(1 0 0 1 0 0)" id="pBC6316B5D00027DE182D44C600657720" href="#t3B229D2E6DCE1BB272FA6CA44900086D" xlink:href="#t3B229D2E6DCE1BB272FA6CA44900086D"/>
        <pattern patternTransform="matrix(1 0 0 1 0 0)" id="pB4F42D4438A08AEA1C89E1E27FA8E796" href="#tB61E08826609D5FC1E27C2CC55981A8F" xlink:href="#tB61E08826609D5FC1E27C2CC55981A8F"/>
    </defs>
</svg>
