<svg class="typst-doc" viewBox="0 0 595.2755905511812 841.8897637795276" width="595.2755905511812pt" height="841.8897637795276pt" xmlns="http://www.w3.org/2000/svg" xmlns:xlink="http://www.w3.org/1999/xlink" xmlns:h5="http://www.w3.org/1999/xhtml">
    <path class="typst-shape" fill="#ffffff" fill-rule="nonzero" d="M 0 0v 841.8898 h 595.2756 v -841.8898 Z "/>
    <g>
        <g class="typst-group">
            <g>
                <path class="typst-shape" fill="#ffdc00" fill-rule="nonzero" transform="matrix(1 0 0 1 212.5984251968504 335.90551181102364)" d="M 0 0m 0 85.03937 c 0 -46.923363 38.116005 -85.03937 85.03937 -85.03937 c 46.92337 0 85.03937 38.116005 85.03937 85.03937 c 0 46.92337 -38.115997 85.03937 -85.03937 85.03937 c -46.923363 0 -85.03937 -38.115997 -85.03937 -85.03937 "/>
                <g class="typst-group" transform="matrix(1 0 0 1 207.5984251968504 330.90551181102364)">
                    <g>
                        <path class="typst-shape" fill="url(#pA69E973882789E8F12DF800671A528CD)" fill-rule="nonzero" stroke="#ff4136" stroke-width="1" stroke-linecap="butt" stroke-linejoin="miter" stroke-miterlimit="4" d="M 0 0v 180.07874 h 180.07874 v -180.07874 Z "/>
                    </g>
                </g>
                <g class="typst-group" transform="matrix(1 0 0 1 70.86614173228347 70.86614173228347)">
                    <g>
                        <path class="typst-shape" fill="url(#pC59B07BA64EDB5748664FA877C9935E4)" fill-rule="nonzero" stroke="#2ecc40" stroke-width="1" stroke-linecap="butt" stroke-linejoin="miter" stroke-miterlimit="4" d="M 0 0v 260.03937 h 218.26772 v -260.03937 Z "/>
                    </g>
                </g>
                <g class="typst-group" transform="matrix(1 0 0 1 70.86614173228347 330.90551181102364)">
                    <g>
                        <path class="typst-shape" fill="url(#pC59B07BA64EDB5748664FA877C9935E4)" fill-rule="nonzero" stroke="#2ecc40" stroke-width="1" stroke-linecap="butt" stroke-linejoin="miter" stroke-miterlimit="4" d="M 0 0v 180.07874 h 136.73228 v -180.07874 Z "/>
                    </g>
                </g>
                <g class="typst-group" transform="matrix(1 0 0 1 70.86614173228347 510.98425196850394)">
                    <g>
                        <path class="typst-shape" fill="url(#pC59B07BA64EDB5748664FA877C9935E4)" fill-rule="nonzero" stroke="#2ecc40" stroke-width="1" stroke-linecap="butt" stroke-linejoin="miter" stroke-miterlimit="4" d="M 0 0v 260.03937 h 218.26772 v -260.03937 Z "/>
                    </g>
                </g>
                <g class="typst-group" transform="matrix(1 0 0 1 70.86614173228347 70.86614173228347)">
                    <g>
                        <path class="typst-shape" fill="url(#pC59B07BA64EDB5748664FA877C9935E4)" fill-rule="nonzero" stroke="#2ecc40" stroke-width="1" stroke-linecap="butt" stroke-linejoin="miter" stroke-miterlimit="4" d="M 0 0h 453.5433 Z "/>
                    </g>
                </g>
                <g class="typst-group" transform="matrix(1 0 0 1 289.13385826771656 70.86614173228347)">
                    <g>
                        <path class="typst-shape" fill="url(#pC59B07BA64EDB5748664FA877C9935E4)" fill-rule="nonzero" stroke="#2ecc40" stroke-width="1" stroke-linecap="butt" stroke-linejoin="miter" stroke-miterlimit="4" d="M 0 0v 260.03937 h 235.27559 v -260.03937 Z "/>
                    </g>
                </g>
                <g class="typst-group" transform="matrix(1 0 0 1 70.86614173228347 330.90551181102364)">
                    <g>
                        <path class="typst-shape" fill="url(#pC59B07BA64EDB5748664FA877C9935E4)" fill-rule="nonzero" stroke="#2ecc40" stroke-width="1" stroke-linecap="butt" stroke-linejoin="miter" stroke-miterlimit="4" d="M 0 0h 453.5433 Z "/>
                    </g>
                </g>
                <g class="typst-group" transform="matrix(1 0 0 1 70.86614173228347 330.90551181102364)">
                    <g>
                        <path class="typst-shape" fill="url(#pC59B07BA64EDB5748664FA877C9935E4)" fill-rule="nonzero" stroke="#2ecc40" stroke-width="1" stroke-linecap="butt" stroke-linejoin="miter" stroke-miterlimit="4" d="M 0 0h 453.5433 Z "/>
                    </g>
                </g>
                <g class="typst-group" transform="matrix(1 0 0 1 387.6771653543307 330.90551181102364)">
                    <g>
                        <path class="typst-shape" fill="url(#pC59B07BA64EDB5748664FA877C9935E4)" fill-rule="nonzero" stroke="#2ecc40" stroke-width="1" stroke-linecap="butt" stroke-linejoin="miter" stroke-miterlimit="4" d="M 0 0v 180.07874 h 136.73228 v -180.07874 Z "/>
                    </g>
                </g>
                <g class="typst-group" transform="matrix(1 0 0 1 70.86614173228347 510.98425196850394)">
                    <g>
                        <path class="typst-shape" fill="url(#pC59B07BA64EDB5748664FA877C9935E4)" fill-rule="nonzero" stroke="#2ecc40" stroke-width="1" stroke-linecap="butt" stroke-linejoin="miter" stroke-miterlimit="4" d="M 0 0h 453.5433 Z "/>
                    </g>
                </g>
                <g class="typst-group" transform="matrix(1 0 0 1 70.86614173228347 510.98425196850394)">
                    <g>
                        <path class="typst-shape" fill="url(#pC59B07BA64EDB5748664FA877C9935E4)" fill-rule="nonzero" stroke="#2ecc40" stroke-width="1" stroke-linecap="butt" stroke-linejoin="miter" stroke-miterlimit="4" d="M 0 0h 453.5433 Z "/>
                    </g>
                </g>
                <g class="typst-group" transform="matrix(1 0 0 1 289.13385826771656 510.98425196850394)">
                    <g>
                        <path class="typst-shape" fill="url(#pC59B07BA64EDB5748664FA877C9935E4)" fill-rule="nonzero" stroke="#2ecc40" stroke-width="1" stroke-linecap="butt" stroke-linejoin="miter" stroke-miterlimit="4" d="M 0 0v 260.03937 h 235.27559 v -260.03937 Z "/>
                    </g>
                </g>
                <g class="typst-group" transform="matrix(1 0 0 1 70.86614173228347 771.0236220472441)">
                    <g>
                        <path class="typst-shape" fill="url(#pC59B07BA64EDB5748664FA877C9935E4)" fill-rule="nonzero" stroke="#2ecc40" stroke-width="1" stroke-linecap="butt" stroke-linejoin="miter" stroke-miterlimit="4" d="M 0 0h 453.5433 Z "/>
                    </g>
                </g>
            </g>
        </g>
    </g>
    <defs id="tilings">
        <pattern id="t6768752016A328DCE79FCC41FBD43C97" width="30" height="30" patternUnits="userSpaceOnUse" viewBox="0 0 30.000 30.000">
            <g>
                <g class="typst-group">
                    <g>
                        <path class="typst-shape" fill="#ff41360d" fill-rule="nonzero" d="M 0 0v 30 h 30 v -30 Z "/>
                    </g>
                </g>
                <path class="typst-shape" fill="none" stroke="#ff4136" stroke-width="0.1" stroke-linecap="butt" stroke-linejoin="miter" stroke-miterlimit="4" transform="matrix(1 0 0 1 7.5 7.5)" d="M 0 0l 15 15 "/>
                <path class="typst-shape" fill="none" stroke="#ff4136" stroke-width="0.1" stroke-linecap="butt" stroke-linejoin="miter" stroke-miterlimit="4" transform="matrix(1 0 0 1 7.5 22.5)" d="M 0 0l 15 -15 "/>
            </g>
        </pattern>
        <pattern id="tFDCC47782D2698055505A1D5B7E3AC44" width="30" height="30" patternUnits="userSpaceOnUse" viewBox="0 0 30.000 30.000">
            <g>
                <g class="typst-group">
                    <g>
                        <path class="typst-shape" fill="#2ecc400d" fill-rule="nonzero" d="M 0 0v 30 h 30 v -30 Z "/>
                    </g>
                </g>
                <path class="typst-shape" fill="none" stroke="#2ecc40" stroke-width="0.1" stroke-linecap="butt" stroke-linejoin="miter" stroke-miterlimit="4" transform="matrix(1 0 0 1 7.5 15)" d="M 0 0h 15 "/>
                <path class="typst-shape" fill="none" stroke="#2ecc40" stroke-width="0.1" stroke-linecap="butt" stroke-linejoin="miter" stroke-miterlimit="4" transform="matrix(1 0 0 1 15 7.5)" d="M 0 0v 15 "/>
            </g>
        </pattern>
    </defs>
    <defs id="tilings-refs">
        <pattern patternTransform="matrix(1 0 0 1 0 0)" id="pA69E973882789E8F12DF800671A528CD" href="#t6768752016A328DCE79FCC41FBD43C97" xlink:href="#t6768752016A328DCE79FCC41FBD43C97"/>
        <pattern patternTransform="matrix(1 0 0 1 0 0)" id="pC59B07BA64EDB5748664FA877C9935E4" href="#tFDCC47782D2698055505A1D5B7E3AC44" xlink:href="#tFDCC47782D2698055505A1D5B7E3AC44"/>
    </defs>
</svg>
